<svg width="388" height="193" viewBox="0 0 388 193" fill="none" xmlns="http://www.w3.org/2000/svg">
<g filter="url(#filter0_b_543_3015)">
<rect width="388" height="193" rx="10" fill="#F5F8FB"/>
</g>
<rect x="12.4492" y="137" width="366.214" height="45" rx="7" fill="white"/>
<mask id="mask0_543_3015" style="mask-type:alpha" maskUnits="userSpaceOnUse" x="344" y="148" width="26" height="25">
<rect x="344.428" y="148" width="24.8984" height="24" fill="#D9D9D9"/>
</mask>
<g mask="url(#mask0_543_3015)">
<path d="M347.54 168V162L355.84 160L347.54 158V152L367.251 160L347.54 168Z" fill="white"/>
</g>
<path d="M29.7304 151.528H31.1224L25.8424 166.6H24.4504L29.7304 151.528ZM33.3333 165.096C32.64 165.096 31.9733 165.005 31.3333 164.824C30.6933 164.632 30.192 164.392 29.8293 164.104L30.4693 162.888C30.8426 163.155 31.296 163.368 31.8293 163.528C32.3626 163.688 32.9013 163.768 33.4453 163.768C34.7893 163.768 35.4613 163.384 35.4613 162.616C35.4613 162.36 35.3706 162.157 35.1893 162.008C35.008 161.859 34.7786 161.752 34.5013 161.688C34.2346 161.613 33.8506 161.533 33.3493 161.448C32.6666 161.341 32.1066 161.219 31.6693 161.08C31.2426 160.941 30.8746 160.707 30.5653 160.376C30.256 160.045 30.1013 159.581 30.1013 158.984C30.1013 158.216 30.4213 157.603 31.0613 157.144C31.7013 156.675 32.56 156.44 33.6373 156.44C34.2026 156.44 34.768 156.509 35.3333 156.648C35.8986 156.787 36.3626 156.973 36.7253 157.208L36.0693 158.424C35.376 157.976 34.56 157.752 33.6213 157.752C32.9706 157.752 32.4746 157.859 32.1333 158.072C31.792 158.285 31.6213 158.568 31.6213 158.92C31.6213 159.197 31.7173 159.416 31.9093 159.576C32.1013 159.736 32.336 159.853 32.6133 159.928C32.9013 160.003 33.3013 160.088 33.8133 160.184C34.496 160.301 35.0453 160.429 35.4613 160.568C35.888 160.696 36.2506 160.92 36.5493 161.24C36.848 161.56 36.9973 162.008 36.9973 162.584C36.9973 163.352 36.6666 163.965 36.0053 164.424C35.3546 164.872 34.464 165.096 33.3333 165.096ZM43.6849 164.504C43.4609 164.696 43.1836 164.845 42.8529 164.952C42.5223 165.048 42.1809 165.096 41.8289 165.096C40.9756 165.096 40.3143 164.867 39.8449 164.408C39.3756 163.949 39.1409 163.293 39.1409 162.44V157.784H37.7009V156.52H39.1409V154.664H40.6769V156.52H43.1089V157.784H40.6769V162.376C40.6769 162.835 40.7889 163.187 41.0129 163.432C41.2476 163.677 41.5783 163.8 42.0049 163.8C42.4743 163.8 42.8743 163.667 43.2049 163.4L43.6849 164.504ZM48.6299 156.44C49.8033 156.44 50.6993 156.728 51.3179 157.304C51.9473 157.88 52.2619 158.739 52.2619 159.88V165H50.8059V163.88C50.5499 164.275 50.1819 164.579 49.7019 164.792C49.2326 164.995 48.6726 165.096 48.0219 165.096C47.0726 165.096 46.3099 164.867 45.7339 164.408C45.1686 163.949 44.8859 163.347 44.8859 162.6C44.8859 161.853 45.1579 161.256 45.7019 160.808C46.2459 160.349 47.1099 160.12 48.2939 160.12H50.7259V159.816C50.7259 159.155 50.5339 158.648 50.1499 158.296C49.7659 157.944 49.2006 157.768 48.4539 157.768C47.9526 157.768 47.4619 157.853 46.9819 158.024C46.5019 158.184 46.0966 158.403 45.7659 158.68L45.1259 157.528C45.5633 157.176 46.0859 156.909 46.6939 156.728C47.3019 156.536 47.9473 156.44 48.6299 156.44ZM48.2779 163.912C48.8646 163.912 49.3713 163.784 49.7979 163.528C50.2246 163.261 50.5339 162.888 50.7259 162.408V161.224H48.3579C47.0566 161.224 46.4059 161.661 46.4059 162.536C46.4059 162.963 46.5713 163.299 46.9019 163.544C47.2326 163.789 47.6913 163.912 48.2779 163.912ZM56.5764 157.944C56.8431 157.453 57.2378 157.08 57.7604 156.824C58.2831 156.568 58.9178 156.44 59.6644 156.44V157.928C59.5791 157.917 59.4618 157.912 59.3124 157.912C58.4804 157.912 57.8244 158.163 57.3444 158.664C56.8751 159.155 56.6404 159.859 56.6404 160.776V165H55.1044V156.52H56.5764V157.944ZM66.6693 164.504C66.4453 164.696 66.168 164.845 65.8373 164.952C65.5066 165.048 65.1653 165.096 64.8133 165.096C63.96 165.096 63.2986 164.867 62.8293 164.408C62.36 163.949 62.1253 163.293 62.1253 162.44V157.784H60.6853V156.52H62.1253V154.664H63.6613V156.52H66.0933V157.784H63.6613V162.376C63.6613 162.835 63.7733 163.187 63.9973 163.432C64.232 163.677 64.5626 163.8 64.9893 163.8C65.4586 163.8 65.8586 163.667 66.1893 163.4L66.6693 164.504Z" fill="#141414"/>
<ellipse cx="34.754" cy="107.5" rx="22.3048" ry="21.5" fill="#41A4FF"/>
<path fill-rule="evenodd" clip-rule="evenodd" d="M41.0628 93.006L32.8165 93.0002L32.8059 95.0783L30.6088 95.0839L30.6044 97.2968L28.8471 97.3L28.8461 100.241L27.2504 100.237L27.248 103.565L25.2548 103.569L25.2436 105.331L22.4969 105.338L22.4927 106.608L20.748 106.615V108.922L22.1445 108.93L22.1491 112.625L24.1433 112.627L24.1461 113.691L25.5488 113.691L25.54 115.281L28.139 115.282L28.144 114.084L26.7531 114.08L26.7425 111.627L23.6528 111.615L23.6464 109.063L22.6025 109.053V107.186L25.1424 107.185L25.1636 105.6L28.7559 105.588L28.7573 104.764L40.7477 104.766L40.7647 105.589L44.355 105.581L44.3652 107.183L46.8986 107.192L46.8972 111.613L43.8196 111.617L43.808 113.563C43.7099 113.608 43.5806 113.603 43.4616 113.598C43.4271 113.596 43.3935 113.595 43.3617 113.595L42.2576 113.588L42.2504 114.536L42.258 120.868L43.6571 120.871L43.6647 115.273L45.501 115.276L45.5202 113.118L48.7587 113.114L48.7567 106.615L47.0091 106.609L47.0053 105.361L44.2628 105.336L44.2594 103.569L42.2632 103.568L42.2512 100.237L40.6969 100.239L40.7133 98.0278L38.907 98.0189L38.9074 100.574L41.2053 100.571L41.2083 103.564L34.6409 103.557C34.6439 103.489 34.6484 103.419 34.6529 103.349C34.6659 103.149 34.6791 102.944 34.6575 102.752L29.3044 102.749L29.3026 100.576L30.5936 100.573L30.6064 98.362L32.0507 98.357L32.0563 95.9495L34.6503 95.942L34.6509 94.9275L41.0464 94.9257L41.0628 93.006ZM37.501 96.7282L38.9073 96.7278L38.9 97.9238L37.5042 97.9165L37.501 96.7282ZM36.301 111.608L37.6547 111.613V112.586C37.641 112.634 37.6156 112.662 37.5852 112.697L37.5852 112.697L37.5851 112.697C37.5789 112.704 37.5725 112.711 37.566 112.718L36.2984 112.728L36.301 111.608ZM34.6851 113.921L34.7119 112.084C34.7512 111.957 34.733 111.763 34.7169 111.59C34.7098 111.514 34.7031 111.442 34.7019 111.382C34.6988 111.229 34.7004 111.078 34.702 110.927C34.7048 110.67 34.7075 110.414 34.6865 110.15L34.6971 109.349L29.5976 109.346L29.6036 111.478L30.5351 111.476L30.5559 112.727L31.9498 112.721L31.9482 111.476L33.4551 111.477L33.4617 113.922L34.6851 113.921ZM31.201 114.082L33.3167 114.085L33.2944 115.809L32.4156 115.819L32.401 117.692L37.1027 117.689L37.0973 115.817L36.2061 115.808L36.2175 114.08L38.2897 114.091C38.368 114.275 38.3414 114.71 38.3212 115.039V115.039V115.039C38.3143 115.152 38.3081 115.253 38.3073 115.327L39.9102 115.329L39.9094 119.863C39.9093 119.882 39.9094 119.899 39.9095 119.915C39.9104 120.016 39.9106 120.043 39.8216 120.144L38.3607 120.149L38.3485 121.886L36.5044 121.889L36.5046 123.082C36.5045 123.116 36.5061 123.154 36.5077 123.195C36.5131 123.325 36.5192 123.477 36.4738 123.576L33.0519 123.575L33.0503 121.886L31.1588 121.881L31.137 120.152L29.6019 120.143L29.5997 115.329L31.1906 115.326L31.201 114.082Z" fill="white"/>
<path opacity="0.1" d="M65.3584 0H369.326V83C369.326 87.4183 365.745 91 361.326 91H73.3584C68.9401 91 65.3584 87.4183 65.3584 83V0Z" fill="#D9D9D9"/>
<rect x="65.3584" y="98" width="137.979" height="26" rx="7" fill="#41A4FF"/>
<path d="M83.9237 113.556H79.7237L78.8957 115.5H77.2877L81.0677 107.1H82.6037L86.3957 115.5H84.7637L83.9237 113.556ZM83.4077 112.332L81.8237 108.66L80.2517 112.332H83.4077ZM93.5373 106.596V115.5H92.0973V114.672C91.8493 114.976 91.5413 115.204 91.1733 115.356C90.8133 115.508 90.4133 115.584 89.9733 115.584C89.3573 115.584 88.8013 115.448 88.3053 115.176C87.8173 114.904 87.4333 114.52 87.1533 114.024C86.8733 113.52 86.7333 112.944 86.7333 112.296C86.7333 111.648 86.8733 111.076 87.1533 110.58C87.4333 110.084 87.8173 109.7 88.3053 109.428C88.8013 109.156 89.3573 109.02 89.9733 109.02C90.3973 109.02 90.7853 109.092 91.1373 109.236C91.4893 109.38 91.7893 109.596 92.0373 109.884V106.596H93.5373ZM90.1533 114.3C90.5133 114.3 90.8373 114.22 91.1253 114.06C91.4133 113.892 91.6413 113.656 91.8093 113.352C91.9773 113.048 92.0613 112.696 92.0613 112.296C92.0613 111.896 91.9773 111.544 91.8093 111.24C91.6413 110.936 91.4133 110.704 91.1253 110.544C90.8373 110.376 90.5133 110.292 90.1533 110.292C89.7933 110.292 89.4693 110.376 89.1813 110.544C88.8933 110.704 88.6653 110.936 88.4973 111.24C88.3293 111.544 88.2453 111.896 88.2453 112.296C88.2453 112.696 88.3293 113.048 88.4973 113.352C88.6653 113.656 88.8933 113.892 89.1813 114.06C89.4693 114.22 89.7933 114.3 90.1533 114.3ZM101.776 106.596V115.5H100.336V114.672C100.088 114.976 99.7796 115.204 99.4116 115.356C99.0516 115.508 98.6516 115.584 98.2116 115.584C97.5956 115.584 97.0396 115.448 96.5436 115.176C96.0556 114.904 95.6716 114.52 95.3916 114.024C95.1116 113.52 94.9716 112.944 94.9716 112.296C94.9716 111.648 95.1116 111.076 95.3916 110.58C95.6716 110.084 96.0556 109.7 96.5436 109.428C97.0396 109.156 97.5956 109.02 98.2116 109.02C98.6356 109.02 99.0236 109.092 99.3756 109.236C99.7276 109.38 100.028 109.596 100.276 109.884V106.596H101.776ZM98.3916 114.3C98.7516 114.3 99.0756 114.22 99.3636 114.06C99.6516 113.892 99.8796 113.656 100.048 113.352C100.216 113.048 100.3 112.696 100.3 112.296C100.3 111.896 100.216 111.544 100.048 111.24C99.8796 110.936 99.6516 110.704 99.3636 110.544C99.0756 110.376 98.7516 110.292 98.3916 110.292C98.0316 110.292 97.7076 110.376 97.4196 110.544C97.1316 110.704 96.9036 110.936 96.7356 111.24C96.5676 111.544 96.4836 111.896 96.4836 112.296C96.4836 112.696 96.5676 113.048 96.7356 113.352C96.9036 113.656 97.1316 113.892 97.4196 114.06C97.7076 114.22 98.0316 114.3 98.3916 114.3ZM110.906 115.152C110.73 115.296 110.514 115.404 110.258 115.476C110.01 115.548 109.746 115.584 109.466 115.584C108.762 115.584 108.218 115.4 107.834 115.032C107.45 114.664 107.258 114.128 107.258 113.424V110.34H106.202V109.14H107.258V107.676H108.758V109.14H110.474V110.34H108.758V113.388C108.758 113.7 108.834 113.94 108.986 114.108C109.138 114.268 109.358 114.348 109.646 114.348C109.982 114.348 110.262 114.26 110.486 114.084L110.906 115.152ZM114.809 115.584C114.161 115.584 113.577 115.444 113.057 115.164C112.537 114.884 112.129 114.496 111.833 114C111.545 113.496 111.401 112.928 111.401 112.296C111.401 111.664 111.545 111.1 111.833 110.604C112.129 110.108 112.537 109.72 113.057 109.44C113.577 109.16 114.161 109.02 114.809 109.02C115.465 109.02 116.053 109.16 116.573 109.44C117.093 109.72 117.497 110.108 117.785 110.604C118.081 111.1 118.229 111.664 118.229 112.296C118.229 112.928 118.081 113.496 117.785 114C117.497 114.496 117.093 114.884 116.573 115.164C116.053 115.444 115.465 115.584 114.809 115.584ZM114.809 114.3C115.361 114.3 115.817 114.116 116.177 113.748C116.537 113.38 116.717 112.896 116.717 112.296C116.717 111.696 116.537 111.212 116.177 110.844C115.817 110.476 115.361 110.292 114.809 110.292C114.257 110.292 113.801 110.476 113.441 110.844C113.089 111.212 112.913 111.696 112.913 112.296C112.913 112.896 113.089 113.38 113.441 113.748C113.801 114.116 114.257 114.3 114.809 114.3ZM128.98 109.092L125.98 116.016C125.7 116.712 125.36 117.2 124.96 117.48C124.56 117.768 124.076 117.912 123.508 117.912C123.188 117.912 122.872 117.86 122.56 117.756C122.248 117.652 121.992 117.508 121.792 117.324L122.392 116.22C122.536 116.356 122.704 116.464 122.896 116.544C123.096 116.624 123.296 116.664 123.496 116.664C123.76 116.664 123.976 116.596 124.144 116.46C124.32 116.324 124.48 116.096 124.624 115.776L124.732 115.524L121.936 109.092H123.496L125.512 113.832L127.54 109.092H128.98ZM132.622 115.584C131.974 115.584 131.39 115.444 130.87 115.164C130.35 114.884 129.942 114.496 129.646 114C129.358 113.496 129.214 112.928 129.214 112.296C129.214 111.664 129.358 111.1 129.646 110.604C129.942 110.108 130.35 109.72 130.87 109.44C131.39 109.16 131.974 109.02 132.622 109.02C133.278 109.02 133.866 109.16 134.386 109.44C134.906 109.72 135.31 110.108 135.598 110.604C135.894 111.1 136.042 111.664 136.042 112.296C136.042 112.928 135.894 113.496 135.598 114C135.31 114.496 134.906 114.884 134.386 115.164C133.866 115.444 133.278 115.584 132.622 115.584ZM132.622 114.3C133.174 114.3 133.63 114.116 133.99 113.748C134.35 113.38 134.53 112.896 134.53 112.296C134.53 111.696 134.35 111.212 133.99 110.844C133.63 110.476 133.174 110.292 132.622 110.292C132.07 110.292 131.614 110.476 131.254 110.844C130.902 111.212 130.726 111.696 130.726 112.296C130.726 112.896 130.902 113.38 131.254 113.748C131.614 114.116 132.07 114.3 132.622 114.3ZM143.68 109.092V115.5H142.252V114.684C142.012 114.972 141.712 115.196 141.352 115.356C140.992 115.508 140.604 115.584 140.188 115.584C139.332 115.584 138.656 115.348 138.16 114.876C137.672 114.396 137.428 113.688 137.428 112.752V109.092H138.928V112.548C138.928 113.124 139.056 113.556 139.312 113.844C139.576 114.124 139.948 114.264 140.428 114.264C140.964 114.264 141.388 114.1 141.7 113.772C142.02 113.436 142.18 112.956 142.18 112.332V109.092H143.68ZM147.072 110.028C147.504 109.356 148.264 109.02 149.352 109.02V110.448C149.224 110.424 149.108 110.412 149.004 110.412C148.42 110.412 147.964 110.584 147.636 110.928C147.308 111.264 147.144 111.752 147.144 112.392V115.5H145.644V109.092H147.072V110.028ZM160.36 109.092V114.528C160.36 116.784 159.208 117.912 156.904 117.912C156.288 117.912 155.704 117.832 155.152 117.672C154.6 117.52 154.144 117.296 153.784 117L154.456 115.872C154.736 116.104 155.088 116.288 155.512 116.424C155.944 116.568 156.38 116.64 156.82 116.64C157.524 116.64 158.04 116.48 158.368 116.16C158.696 115.84 158.86 115.352 158.86 114.696V114.36C158.604 114.64 158.292 114.852 157.924 114.996C157.556 115.14 157.152 115.212 156.712 115.212C156.104 115.212 155.552 115.084 155.056 114.828C154.568 114.564 154.18 114.196 153.892 113.724C153.612 113.252 153.472 112.712 153.472 112.104C153.472 111.496 153.612 110.96 153.892 110.496C154.18 110.024 154.568 109.66 155.056 109.404C155.552 109.148 156.104 109.02 156.712 109.02C157.176 109.02 157.596 109.096 157.972 109.248C158.356 109.4 158.676 109.632 158.932 109.944V109.092H160.36ZM156.94 113.94C157.508 113.94 157.972 113.772 158.332 113.436C158.7 113.092 158.884 112.648 158.884 112.104C158.884 111.568 158.7 111.132 158.332 110.796C157.972 110.46 157.508 110.292 156.94 110.292C156.364 110.292 155.892 110.46 155.524 110.796C155.164 111.132 154.984 111.568 154.984 112.104C154.984 112.648 155.164 113.092 155.524 113.436C155.892 113.772 156.364 113.94 156.94 113.94ZM163.76 110.028C164.192 109.356 164.952 109.02 166.04 109.02V110.448C165.912 110.424 165.796 110.412 165.692 110.412C165.108 110.412 164.652 110.584 164.324 110.928C163.996 111.264 163.832 111.752 163.832 112.392V115.5H162.332V109.092H163.76V110.028ZM170.134 115.584C169.486 115.584 168.902 115.444 168.382 115.164C167.862 114.884 167.454 114.496 167.158 114C166.87 113.496 166.726 112.928 166.726 112.296C166.726 111.664 166.87 111.1 167.158 110.604C167.454 110.108 167.862 109.72 168.382 109.44C168.902 109.16 169.486 109.02 170.134 109.02C170.79 109.02 171.378 109.16 171.898 109.44C172.418 109.72 172.822 110.108 173.11 110.604C173.406 111.1 173.554 111.664 173.554 112.296C173.554 112.928 173.406 113.496 173.11 114C172.822 114.496 172.418 114.884 171.898 115.164C171.378 115.444 170.79 115.584 170.134 115.584ZM170.134 114.3C170.686 114.3 171.142 114.116 171.502 113.748C171.862 113.38 172.042 112.896 172.042 112.296C172.042 111.696 171.862 111.212 171.502 110.844C171.142 110.476 170.686 110.292 170.134 110.292C169.582 110.292 169.126 110.476 168.766 110.844C168.414 111.212 168.238 111.696 168.238 112.296C168.238 112.896 168.414 113.38 168.766 113.748C169.126 114.116 169.582 114.3 170.134 114.3ZM181.192 109.092V115.5H179.764V114.684C179.524 114.972 179.224 115.196 178.864 115.356C178.504 115.508 178.116 115.584 177.7 115.584C176.844 115.584 176.168 115.348 175.672 114.876C175.184 114.396 174.94 113.688 174.94 112.752V109.092H176.44V112.548C176.44 113.124 176.568 113.556 176.824 113.844C177.088 114.124 177.46 114.264 177.94 114.264C178.476 114.264 178.9 114.1 179.212 113.772C179.532 113.436 179.692 112.956 179.692 112.332V109.092H181.192ZM186.708 109.02C187.332 109.02 187.888 109.156 188.376 109.428C188.872 109.7 189.26 110.084 189.54 110.58C189.82 111.076 189.96 111.648 189.96 112.296C189.96 112.944 189.82 113.52 189.54 114.024C189.26 114.52 188.872 114.904 188.376 115.176C187.888 115.448 187.332 115.584 186.708 115.584C185.844 115.584 185.16 115.296 184.656 114.72V117.828H183.156V109.092H184.584V109.932C184.832 109.628 185.136 109.4 185.496 109.248C185.864 109.096 186.268 109.02 186.708 109.02ZM186.54 114.3C187.092 114.3 187.544 114.116 187.896 113.748C188.256 113.38 188.436 112.896 188.436 112.296C188.436 111.696 188.256 111.212 187.896 110.844C187.544 110.476 187.092 110.292 186.54 110.292C186.18 110.292 185.856 110.376 185.568 110.544C185.28 110.704 185.052 110.936 184.884 111.24C184.716 111.544 184.632 111.896 184.632 112.296C184.632 112.696 184.716 113.048 184.884 113.352C185.052 113.656 185.28 113.892 185.568 114.06C185.856 114.22 186.18 114.3 186.54 114.3Z" fill="white"/>
<rect opacity="0.1" x="81.957" y="59" width="248.984" height="18" rx="9" fill="#D9D9D9"/>
<rect opacity="0.1" x="81.957" y="36" width="149.39" height="18" rx="9" fill="#D9D9D9"/>
<rect opacity="0.2" x="81.957" y="13" width="201.262" height="18" rx="9" fill="#D9D9D9"/>
<defs>
<filter id="filter0_b_543_3015" x="-94" y="-94" width="576" height="381" filterUnits="userSpaceOnUse" color-interpolation-filters="sRGB">
<feFlood flood-opacity="0" result="BackgroundImageFix"/>
<feGaussianBlur in="BackgroundImageFix" stdDeviation="47"/>
<feComposite in2="SourceAlpha" operator="in" result="effect1_backgroundBlur_543_3015"/>
<feBlend mode="normal" in="SourceGraphic" in2="effect1_backgroundBlur_543_3015" result="shape"/>
</filter>
</defs>
</svg>
